<svg width="174" height="204" viewBox="0 0 174 204" fill="none" xmlns="http://www.w3.org/2000/svg">
<path d="M15.3032 19.179H24.0753V64H15.3032V19.179ZM1.34463 19.179H38.0338V26.7986H1.34463V19.179ZM59.758 64L47.7204 19.179H56.6846L68.0179 64H59.758ZM72.0518 64H63.7279L75.1252 19.179H84.0254L72.0518 64ZM42.662 19.179H51.0499V64H42.662V19.179ZM80.7598 19.179H89.1478V64H80.7598V19.179ZM132.178 44.791C132.178 49.017 131.559 52.6453 130.321 55.6761C129.126 58.6642 127.184 60.9692 124.494 62.5913C121.848 64.2134 118.326 65.0245 113.929 65.0245C109.49 65.0245 105.926 64.2134 103.236 62.5913C100.59 60.9692 98.6476 58.6642 97.4096 55.6761C96.2144 52.6453 95.6168 49.017 95.6168 44.791H104.325C104.325 47.3522 104.602 49.5719 105.157 51.4501C105.712 53.2856 106.694 54.6943 108.103 55.6761C109.511 56.6152 111.454 57.0848 113.929 57.0848C116.405 57.0848 118.326 56.6152 119.692 55.6761C121.101 54.6943 122.083 53.2856 122.637 51.4501C123.192 49.5719 123.47 47.3522 123.47 44.791H132.178ZM95.6168 19.179H104.325V44.791H95.6168V19.179ZM123.47 19.179H132.178V44.791H123.47V19.179Z" fill="white"/>
<path d="M15.3032 79.419H24.0753V124.24H15.3032V79.419ZM1.34463 79.419H38.0338V87.0386H1.34463V79.419ZM43.8961 109.193V102.15H63.8734L60.928 103.942C61.0988 102.534 60.928 101.147 60.4158 99.7805C59.9036 98.4146 59.0498 97.3047 57.8546 96.451C56.6594 95.5545 55.08 95.1063 53.1164 95.1063C50.5552 95.1063 48.3568 95.9387 46.5213 97.6035C44.7285 99.2683 43.8534 101.723 43.8961 104.967H34.8678C35.0813 101.168 36.0204 97.9663 37.6852 95.3625C39.3926 92.7586 41.591 90.7736 44.2802 89.4077C46.9695 88.0417 49.9149 87.3587 53.1164 87.3587C55.5495 87.3587 57.8546 87.8496 60.0316 88.8314C62.2086 89.8132 64.0869 91.2432 65.6663 93.1214C67.2457 94.9569 68.3982 97.2407 69.1239 99.9726C69.8496 102.662 69.9776 105.735 69.5081 109.193H43.8961ZM53.1164 125.264C49.7868 125.264 46.8201 124.603 44.2162 123.28C41.655 121.914 39.5847 120.035 38.0053 117.645C36.4259 115.212 35.4228 112.394 34.9959 109.193H43.8961C44.2376 111.626 45.134 113.632 46.5853 115.212C48.0794 116.748 50.2564 117.517 53.1164 117.517C55.08 117.517 56.6807 117.069 57.9186 116.172C59.1566 115.276 60.0103 114.166 60.4798 112.843H69.5721C69.0599 115.318 68.0567 117.495 66.5627 119.374C65.0687 121.209 63.1691 122.661 60.864 123.728C58.6016 124.752 56.0191 125.264 53.1164 125.264ZM108.163 109.193C108.12 112.266 107.395 115.02 105.986 117.453C104.578 119.886 102.614 121.807 100.095 123.216C97.6196 124.581 94.6955 125.264 91.3233 125.264C87.6096 125.264 84.3867 124.475 81.6548 122.895C78.9228 121.273 76.7885 119.032 75.2518 116.172C73.7577 113.312 73.0107 110.047 73.0107 106.376C73.0107 102.662 73.7577 99.375 75.2518 96.515C76.7885 93.655 78.9228 91.4139 81.6548 89.7918C84.3867 88.1698 87.6096 87.3587 91.3233 87.3587C94.5675 87.3587 97.4275 88.0844 99.9033 89.5357C102.422 90.9444 104.385 92.8013 105.794 95.1063C107.245 97.3687 107.992 99.8232 108.035 102.47H98.9429C98.9002 101.232 98.6227 100.079 98.1105 99.0122C97.5982 97.9023 96.7872 96.9846 95.6773 96.2589C94.5675 95.5332 93.1161 95.1704 91.3233 95.1704C89.0609 95.1704 87.2254 95.6613 85.8167 96.6431C84.4081 97.6249 83.3836 98.9695 82.7433 100.677C82.103 102.384 81.7828 104.284 81.7828 106.376C81.7828 108.425 82.103 110.303 82.7433 112.01C83.3836 113.675 84.4081 114.998 85.8167 115.98C87.2254 116.962 89.0609 117.453 91.3233 117.453C93.1588 117.453 94.6315 117.069 95.7414 116.3C96.8939 115.489 97.7476 114.465 98.3026 113.227C98.8575 111.989 99.1563 110.644 99.199 109.193H108.163ZM112.876 76.2175H121.456V124.24H112.876V76.2175ZM121.456 106.632L120.432 99.3323C120.432 98.2225 120.603 96.9846 120.944 95.6186C121.286 94.2526 121.905 92.9507 122.801 91.7127C123.697 90.4321 124.957 89.3863 126.579 88.5753C128.201 87.7642 130.314 87.3587 132.918 87.3587C135.223 87.3587 137.272 87.8283 139.065 88.7674C140.857 89.7065 142.266 91.2645 143.291 93.4416C144.315 95.5759 144.827 98.4786 144.827 102.15V124.24H136.247V102.982C136.247 101.445 136.119 100.058 135.863 98.8201C135.607 97.5822 135.073 96.6217 134.262 95.9387C133.451 95.2131 132.213 94.8502 130.549 94.8502C129.14 94.8502 127.731 95.2557 126.323 96.0668C124.914 96.8351 123.74 98.0731 122.801 99.7805C121.905 101.488 121.456 103.772 121.456 106.632Z" fill="white"/>
<path d="M12.9341 184.48L1.34463 139.659H9.98868L20.9378 184.48H12.9341ZM24.5875 184.48H16.5838L27.5329 139.659H36.1769L24.5875 184.48ZM40.1468 184.48L28.5574 139.659H37.2014L48.1506 184.48H40.1468ZM51.8643 184.48H43.8606L54.8097 139.659H63.4537L51.8643 184.48ZM72.597 169.433V162.39H92.5744L89.629 164.182C89.7997 162.774 89.629 161.386 89.1168 160.021C88.6045 158.655 87.7508 157.545 86.5556 156.691C85.3603 155.795 83.7809 155.346 81.8173 155.346C79.2561 155.346 77.0578 156.179 75.2222 157.844C73.4294 159.508 72.5543 161.963 72.597 165.207H63.5688C63.7822 161.408 64.7213 158.206 66.3861 155.602C68.0936 152.999 70.2919 151.014 72.9812 149.648C75.6705 148.282 78.6158 147.599 81.8173 147.599C84.2505 147.599 86.5556 148.09 88.7326 149.071C90.9096 150.053 92.7878 151.483 94.3672 153.361C95.9466 155.197 97.0992 157.481 97.8248 160.213C98.5505 162.902 98.6786 165.975 98.209 169.433H72.597ZM81.8173 185.504C78.4878 185.504 75.5211 184.843 72.9172 183.52C70.356 182.154 68.2857 180.275 66.7063 177.885C65.1268 175.452 64.1237 172.634 63.6968 169.433H72.597C72.9385 171.866 73.8349 173.872 75.2863 175.452C76.7803 176.988 78.9573 177.757 81.8173 177.757C83.7809 177.757 85.3817 177.309 86.6196 176.412C87.8575 175.516 88.7112 174.406 89.1808 173.083H98.273C97.7608 175.558 96.7577 177.735 95.2636 179.614C93.7696 181.449 91.87 182.901 89.565 183.968C87.3026 184.992 84.72 185.504 81.8173 185.504ZM110.74 169.433V162.39H130.717L127.772 164.182C127.943 162.774 127.772 161.386 127.26 160.021C126.747 158.655 125.894 157.545 124.698 156.691C123.503 155.795 121.924 155.346 119.96 155.346C117.399 155.346 115.201 156.179 113.365 157.844C111.572 159.508 110.697 161.963 110.74 165.207H101.712C101.925 161.408 102.864 158.206 104.529 155.602C106.236 152.999 108.435 151.014 111.124 149.648C113.813 148.282 116.759 147.599 119.96 147.599C122.393 147.599 124.698 148.09 126.875 149.071C129.052 150.053 130.931 151.483 132.51 153.361C134.089 155.197 135.242 157.481 135.968 160.213C136.693 162.902 136.821 165.975 136.352 169.433H110.74ZM119.96 185.504C116.631 185.504 113.664 184.843 111.06 183.52C108.499 182.154 106.429 180.275 104.849 177.885C103.27 175.452 102.267 172.634 101.84 169.433H110.74C111.081 171.866 111.978 173.872 113.429 175.452C114.923 176.988 117.1 177.757 119.96 177.757C121.924 177.757 123.525 177.309 124.762 176.412C126 175.516 126.854 174.406 127.324 173.083H136.416C135.904 175.558 134.901 177.735 133.407 179.614C131.912 181.449 130.013 182.901 127.708 183.968C125.445 184.992 122.863 185.504 119.96 185.504ZM141.452 136.457H150.032V184.48H141.452V136.457ZM150.929 163.094L159.445 162.838L172.123 184.48H162.71L150.929 163.094ZM171.162 148.623L148.88 176.412L144.974 168.665L160.981 148.623H171.162Z" fill="white"/>
</svg>
