<svg width="31" height="31" viewBox="0 0 31 31" fill="none" xmlns="http://www.w3.org/2000/svg">
<path d="M8.88242 0.10242C7.27242 0.18242 6.17237 0.432419 5.20237 0.812419C4.20237 1.20242 3.36244 1.72242 2.52244 2.56242C1.68244 3.40242 1.16245 4.25241 0.782447 5.25241C0.412447 6.21241 0.152373 7.32241 0.0823734 8.93242C0.0123734 10.5424 -0.00758268 11.0624 0.00241732 15.1824C0.00241732 19.3024 0.0323929 19.8124 0.102393 21.4324C0.182393 23.0424 0.432476 24.1424 0.812476 25.1124C1.20248 26.1124 1.72248 26.9524 2.56248 27.7924C3.40248 28.6324 4.25242 29.1524 5.25242 29.5324C6.21242 29.9024 7.32247 30.1624 8.93247 30.2324C10.5425 30.3024 11.0625 30.3224 15.1825 30.3124C19.2925 30.3124 19.8125 30.2824 21.4325 30.2124C23.0525 30.1424 24.1424 29.8824 25.1024 29.5024C26.1024 29.1124 26.9424 28.5924 27.7824 27.7524C28.6224 26.9124 29.1424 26.0624 29.5224 25.0624C29.8924 24.1024 30.1524 22.9924 30.2224 21.3824C30.2924 19.7624 30.3125 19.2524 30.3025 15.1324C30.3025 11.0124 30.2724 10.5024 30.2024 8.88242C30.1224 7.26242 29.8724 6.17242 29.4924 5.20242C29.1024 4.20242 28.5824 3.36242 27.7424 2.52242C26.9024 1.68242 26.0525 1.16241 25.0525 0.782413C24.0925 0.412413 22.9824 0.152416 21.3724 0.0824161C19.7624 0.0124161 19.2424 -0.00758576 15.1224 0.00241424C11.0024 0.0124142 10.4924 0.0324203 8.87241 0.10242M9.06248 27.5024C7.58248 27.4424 6.78242 27.1924 6.25242 26.9824C5.54242 26.7124 5.04242 26.3824 4.50242 25.8524C3.96242 25.3224 3.6424 24.8224 3.3624 24.1124C3.1524 23.5824 2.90237 22.7724 2.83237 21.3024C2.75237 19.7024 2.7424 19.2224 2.7324 15.1824C2.7224 11.1424 2.73248 10.6524 2.81248 9.06242C2.87248 7.58242 3.12237 6.78241 3.33237 6.25241C3.60237 5.54241 3.93238 5.04241 4.46238 4.50241C4.99238 3.96241 5.49237 3.64241 6.20237 3.36241C6.73237 3.15241 7.54243 2.90242 9.01243 2.83242C10.6124 2.75242 11.0924 2.74242 15.1324 2.73242C19.1824 2.73242 19.6624 2.73242 21.2524 2.81242C22.7324 2.87242 23.5325 3.12242 24.0625 3.33242C24.7725 3.60242 25.2725 3.93241 25.8125 4.46241C26.3525 4.99241 26.6724 5.49242 26.9524 6.20242C27.1624 6.73242 27.4124 7.53242 27.4824 9.01242C27.5624 10.6124 27.5724 11.0924 27.5824 15.1324C27.5824 19.1824 27.5824 19.6624 27.5024 21.2524C27.4424 22.7324 27.1924 23.5324 26.9824 24.0724C26.7124 24.7824 26.3824 25.2824 25.8524 25.8124C25.3224 26.3424 24.8224 26.6724 24.1124 26.9524C23.5824 27.1624 22.7725 27.4124 21.3025 27.4824C19.7025 27.5624 19.2225 27.5724 15.1825 27.5824C11.1425 27.5924 10.6625 27.5824 9.06248 27.5024ZM21.4225 7.05242C21.4225 8.05242 22.2424 8.87242 23.2424 8.87242C24.2424 8.87242 25.0625 8.05242 25.0625 7.05242C25.0625 6.05242 24.2424 5.23242 23.2424 5.23242C22.2424 5.23242 21.4225 6.05242 21.4225 7.05242ZM7.38242 15.1624C7.38242 19.4624 10.8825 22.9324 15.1825 22.9324C19.4825 22.9324 22.9624 19.4324 22.9524 15.1324C22.9424 10.8324 19.4524 7.35241 15.1524 7.36241C10.8524 7.37242 7.38242 10.8624 7.38242 15.1624ZM10.1124 15.1624C10.1124 12.3724 12.3624 10.1024 15.1524 10.1024C17.9424 10.1024 20.2124 12.3524 20.2124 15.1424C20.2124 17.9324 17.9625 20.2024 15.1725 20.2024C12.3825 20.2024 10.1124 17.9524 10.1124 15.1624Z" fill="white"/>
</svg>
