<svg width="65" height="65" viewBox="0 0 65 65" fill="none" xmlns="http://www.w3.org/2000/svg">
<path d="M4.45 22.08V42.92H0.090004C0.060004 35.97 0.03 29.02 0 22.08H4.45ZM6.05 13.6V31.82H10.51V13.49C9.02 13.53 7.54 13.56 6.05 13.6ZM6.05 33.17V51.39C7.53 51.43 9.02 51.46 10.5 51.5V33.17H6.05ZM12.1 35.48V57.81C13.58 57.81 15.07 57.81 16.55 57.81V35.48H12.1ZM12.1 7.18999V29.51H16.55V7.18999C15.07 7.18999 13.58 7.18999 12.1 7.18999ZM18.16 3.32V25.45H22.62V3.3C21.13 3.3 19.65 3.31 18.16 3.32ZM18.16 39.55V61.68C19.65 61.7 21.13 61.72 22.62 61.74V39.55H18.16ZM24.21 47V63.93C25.69 63.93 27.18 63.93 28.66 63.93V46.99H24.21V47ZM24.21 1.06V17.99H28.66V1.05H24.21V1.06ZM34.72 0H30.27V8.07H34.72V0ZM34.72 56.93H30.27V65H34.72V56.93ZM60.54 22.08V42.92H64.9C64.93 35.97 64.96 29.02 64.99 22.08H60.54ZM54.48 13.49V31.82H58.94V13.6C57.45 13.56 55.97 13.53 54.48 13.49ZM54.49 33.18V51.51C55.97 51.47 57.46 51.44 58.94 51.4V33.18H54.49ZM48.43 35.49V57.82C49.91 57.82 51.4 57.82 52.88 57.82V35.49H48.43ZM48.43 7.18999V29.51H52.88V7.18999C51.4 7.18999 49.91 7.18999 48.43 7.18999ZM42.37 3.31V25.46H46.83V3.32999C45.34 3.32999 43.86 3.32 42.37 3.31ZM42.37 39.55V61.74C43.86 61.72 45.34 61.7 46.83 61.68V39.55H42.37ZM36.32 47.01V63.95C37.8 63.95 39.29 63.95 40.77 63.95V47.02H36.32V47.01ZM40.77 1.07V18H36.32V1.06H40.77V1.07Z" fill="white"/>
</svg>
